/* XPM */
static const char *edit_xpm[] = {
/* columns rows colors chars-per-pixel */
"16 17 23 1",
"+ c Black",
"# c #DBFFFF",
"= c #FFDB90",
"& c #00003A",
": c #B66600",
"X c #660000",
", c #000066",
"  c None",
"% c #903A00",
"4 c #903A3A",
"- c #3A0000",
"> c #66B6B6",
"2 c #DB903A",
"1 c #660066",
"@ c #003A90",
"< c #B6FFFF",
"; c #0066B6",
"O c #FFB666",
"3 c #66B6FF",
"o c #3A90DB",
"* c #90DBFF",
". c #FFFFB6",
"$ c #FFFFDB",
/* pixels */
"                ",
"                ",
"                ",
"      .Xo       ",
"      O+@#      ",
"     $%+&*      ",
"     =-++;      ",
"     :>X+,<     ",
"    .1<2++3     ",
"    2o =-+@#    ",
"   $4* $%+&*    ",
"   O+++++++o    ",
"   :3   .X+@#   ",
"  2@#    2++;   ",
" X+++3 .X++++@# ",
"                ",
"                "
};
